<svg width="128" height="128" viewBox="0 0 128 128" fill="none" xmlns="http://www.w3.org/2000/svg">
  <!-- Outer Ring -->
  <circle cx="64" cy="64" r="62" fill="#1A1B1F" stroke="#FFD166" stroke-width="4"/>
  
  <!-- Inner Coin Circle -->
  <circle cx="64" cy="64" r="54" fill="#2A2B2F" stroke="#FFD166" stroke-width="2" opacity="0.8"/>
  
  <!-- Dachshund Body -->
  <ellipse cx="64" cy="70" rx="32" ry="12" fill="#FFD166"/>
  
  <!-- Dachshund Head -->
  <ellipse cx="90" cy="64" rx="14" ry="16" fill="#FFD166"/>
  
  <!-- Dachshund Snout -->
  <ellipse cx="102" cy="66" rx="6" ry="8" fill="#FFD166"/>
  
  <!-- Dog Ears -->
  <ellipse cx="82" cy="52" rx="6" ry="10" fill="#F67280" transform="rotate(-20 82 52)"/>
  <ellipse cx="94" cy="50" rx="5" ry="8" fill="#F67280" transform="rotate(15 94 50)"/>
  
  <!-- Dog Eyes -->
  <circle cx="88" cy="60" r="2" fill="#1A1B1F"/>
  <circle cx="94" cy="62" r="2" fill="#1A1B1F"/>
  <circle cx="88.5" cy="59.5" r="0.8" fill="#FFFFFF"/>
  <circle cx="94.5" cy="61.5" r="0.8" fill="#FFFFFF"/>
  
  <!-- Dog Nose -->
  <ellipse cx="102" cy="64" rx="1.5" ry="2" fill="#1A1B1F"/>
  
  <!-- Dog Tail (curved) -->
  <path d="M32 68 Q26 62 30 56 Q34 50 38 54 Q36 60 34 66" fill="#F67280"/>
  
  <!-- Dog Legs -->
  <rect x="45" y="80" width="4" height="8" rx="2" fill="#FFD166"/>
  <rect x="52" y="80" width="4" height="8" rx="2" fill="#FFD166"/>
  <rect x="74" y="80" width="4" height="8" rx="2" fill="#FFD166"/>
  <rect x="81" y="80" width="4" height="8" rx="2" fill="#FFD166"/>
  
  <!-- Paws -->
  <ellipse cx="47" cy="90" rx="3" ry="2" fill="#F67280"/>
  <ellipse cx="54" cy="90" rx="3" ry="2" fill="#F67280"/>
  <ellipse cx="76" cy="90" rx="3" ry="2" fill="#F67280"/>
  <ellipse cx="83" cy="90" rx="3" ry="2" fill="#F67280"/>
  
  <!-- DACH Text -->
  <text x="64" y="110" text-anchor="middle" font-family="Inter, sans-serif" font-size="16" font-weight="bold" fill="#FFD166">DACH</text>
  
  <!-- Crypto Coin Pattern -->
  <defs>
    <radialGradient id="coinGradient" cx="50%" cy="30%" r="70%">
      <stop offset="0%" stop-color="#FFD166" stop-opacity="0.3"/>
      <stop offset="100%" stop-color="#FFD166" stop-opacity="0.1"/>
    </radialGradient>
  </defs>
  <circle cx="64" cy="64" r="50" fill="url(#coinGradient)"/>
  
  <!-- Decorative Dots -->
  <circle cx="32" cy="32" r="2" fill="#6C63FF" opacity="0.6"/>
  <circle cx="96" cy="32" r="2" fill="#6C63FF" opacity="0.6"/>
  <circle cx="32" cy="96" r="2" fill="#6C63FF" opacity="0.6"/>
  <circle cx="96" cy="96" r="2" fill="#6C63FF" opacity="0.6"/>
  
  <!-- Coin Edge Details -->
  <circle cx="64" cy="64" r="58" fill="none" stroke="#FFD166" stroke-width="1" opacity="0.5" stroke-dasharray="4,4"/>
</svg>
